<svg xmlns="http://www.w3.org/2000/svg" viewBox="0 0 800 600" width="100%" height="100%">
  <rect width="800" height="600" fill="#f8fafc"/>
  <rect x="250" y="100" width="300" height="400" rx="16" fill="#ffffff" stroke="#e2e8f0" stroke-width="4" filter="drop-shadow(0 4px 6px rgba(0,0,0,0.05))"/>
  
  <!-- Boiler Control Panel -->
  <rect x="280" y="380" width="240" height="80" rx="8" fill="#0f172a"/>
  <circle cx="330" cy="420" r="16" fill="#10b981"/> <!-- Green display -->
  <circle cx="440" cy="420" r="12" fill="#334155"/>
  <circle cx="475" cy="420" r="12" fill="#334155"/>
  
  <!-- Pressure Gauge -->
  <circle cx="390" cy="420" r="18" fill="#ffffff" stroke="#475569" stroke-width="2"/>
  <line x1="390" y1="420" x2="400" y2="410" stroke="#ef4444" stroke-width="3" stroke-linecap="round"/>
  
  <!-- Logo/Brand on Boiler -->
  <text x="400" y="180" text-anchor="middle" font-family="'Outfit', sans-serif" font-size="24" font-weight="900" fill="#059669">
    JHT SYSTEM A+
  </text>
  
  <!-- Flame Window -->
  <rect x="375" y="240" width="50" height="70" rx="25" fill="#1e293b" stroke="#475569" stroke-width="3"/>
  <path d="M400,250 Q420,285 410,300 A15,15 0 0,1 390,300 Q380,285 400,250 Z" fill="#f97316"/>
  <path d="M400,265 Q410,290 405,300 A10,10 0 0,1 395,300 Q390,290 400,265 Z" fill="#f59e0b"/>

  <!-- Pipes -->
  <rect x="300" y="500" width="25" height="50" fill="#94a3b8"/>
  <rect x="350" y="500" width="25" height="50" fill="#cbd5e1"/>
  <rect x="425" y="500" width="25" height="50" fill="#cbd5e1"/>
  <rect x="475" y="500" width="25" height="50" fill="#94a3b8"/>
</svg>