<svg xmlns="http://www.w3.org/2000/svg" viewBox="0 0 800 600" width="100%" height="100%">
  <rect width="800" height="600" fill="#0f172a"/>
  <defs>
    <radialGradient id="glow" cx="50%" cy="50%" r="50%">
      <stop offset="0%" stop-color="#047857" stop-opacity="0.3"/>
      <stop offset="100%" stop-color="#0f172a" stop-opacity="0"/>
    </radialGradient>
  </defs>
  <rect width="800" height="600" fill="url(#glow)"/>
  
  <!-- Stylized modern home illustration -->
  <path d="M 400 150 L 600 300 L 600 500 L 200 500 L 200 300 Z" fill="#1e293b" stroke="#334155" stroke-width="4"/>
  <path d="M 400 150 L 600 300 H 200 Z" fill="#0f172a" stroke="#10b981" stroke-width="6"/>
  
  <!-- Windows with warm light -->
  <rect x="250" y="340" width="80" height="80" rx="8" fill="#f59e0b" opacity="0.95"/>
  <line x1="290" y1="340" x2="290" y2="420" stroke="#1e293b" stroke-width="4"/>
  <line x1="250" y1="380" x2="330" y2="380" stroke="#1e293b" stroke-width="4"/>
  
  <rect x="470" y="340" width="80" height="80" rx="8" fill="#f59e0b" opacity="0.95"/>
  <line x1="510" y1="340" x2="510" y2="420" stroke="#1e293b" stroke-width="4"/>
  <line x1="470" y1="380" x2="550" y2="380" stroke="#1e293b" stroke-width="4"/>
  
  <!-- Door -->
  <rect x="360" y="400" width="80" height="100" rx="4" fill="#047857"/>
  <circle cx="425" cy="450" r="4" fill="#fbbf24"/>
  
  <!-- Heatwaves / Insulation shield around house -->
  <path d="M 170 290 L 400 120 L 630 290 L 630 520 H 170 Z" fill="none" stroke="#10b981" stroke-width="3" stroke-dasharray="8 6" opacity="0.6"/>
  <path d="M 150 280 L 400 100 L 650 280 L 650 540 H 150 Z" fill="none" stroke="#059669" stroke-width="2" stroke-dasharray="4 4" opacity="0.4"/>
  
  <!-- Overlay Title -->
  <text x="400" y="80" text-anchor="middle" font-family="'Outfit', sans-serif" font-size="32" font-weight="900" fill="#ffffff" letter-spacing="-1">
    EFFICIENT & WARM HOME
  </text>
</svg>