<svg xmlns="http://www.w3.org/2000/svg" viewBox="0 0 800 600" width="100%" height="100%">
  <rect width="800" height="600" fill="#f8fafc"/>
  
  <!-- Roof rafters (Triangular pitch at top) -->
  <polygon points="100,300 400,80 700,300" fill="none" stroke="#92400e" stroke-width="8"/>
  <line x1="400" y1="80" x2="400" y2="380" stroke="#92400e" stroke-width="4"/>
  
  <!-- Ceiling Board (Horizontal base) -->
  <rect x="100" y="380" width="600" height="30" fill="#e2e8f0" stroke="#cbd5e1" stroke-width="2"/>
  
  <!-- Loft Insulation Quilt Rolls (thick layer on ceiling) -->
  <rect x="120" y="280" width="560" height="100" rx="10" fill="#fbcfe8" stroke="#ec4899" stroke-width="3"/>
  
  <!-- Roll detail swirls -->
  <path d="M 160 330 C 160 300 190 300 190 330 C 190 360 160 360 160 330 Z" fill="none" stroke="#db2777" stroke-width="3"/>
  <path d="M 300 330 C 300 300 330 300 330 330 C 330 360 300 360 300 330 Z" fill="none" stroke="#db2777" stroke-width="3"/>
  <path d="M 450 330 C 450 300 480 300 480 330 C 480 360 450 360 450 330 Z" fill="none" stroke="#db2777" stroke-width="3"/>
  <path d="M 580 330 C 580 300 610 300 610 330 C 610 360 580 360 580 330 Z" fill="none" stroke="#db2777" stroke-width="3"/>
  
  <!-- Labels -->
  <text x="400" y="450" text-anchor="middle" font-family="'Outfit', sans-serif" font-size="22" font-weight="900" fill="#0f172a">
    270mm GLASSWOOL INSULATION
  </text>
  <text x="400" y="480" text-anchor="middle" font-family="sans-serif" font-size="14" font-weight="bold" fill="#64748b">
    Prevents 25% heat loss through roof
  </text>
</svg>