<svg xmlns="http://www.w3.org/2000/svg" viewBox="0 0 800 600" width="100%" height="100%">
  <rect width="800" height="600" fill="#f8fafc"/>
  
  <!-- Wooden floorboards (Top third) -->
  <rect x="100" y="100" width="600" height="80" fill="#fed7aa" stroke="#ea580c" stroke-width="3"/>
  <line x1="220" y1="100" x2="220" y2="180" stroke="#ea580c" stroke-width="2"/>
  <line x1="340" y1="100" x2="340" y2="180" stroke="#ea580c" stroke-width="2"/>
  <line x1="460" y1="100" x2="460" y2="180" stroke="#ea580c" stroke-width="2"/>
  <line x1="580" y1="100" x2="580" y2="180" stroke="#ea580c" stroke-width="2"/>
  
  <!-- Joists (vertical beams supporting floor) -->
  <rect x="180" y="180" width="60" height="240" fill="#b45309"/>
  <rect x="420" y="180" width="60" height="240" fill="#b45309"/>
  
  <!-- Insulation rolls sitting between joists -->
  <rect x="240" y="180" width="180" height="180" fill="#a7f3d0" stroke="#10b981" stroke-width="3"/>
  <path d="M 250 190 C 270 190 270 210 290 210 C 310 210 310 190 330 190 C 350 190 350 210 370 210" fill="none" stroke="#059669" stroke-width="3"/>
  <path d="M 250 250 C 270 250 270 270 290 270 C 310 270 310 250 330 250 C 350 250 350 270 370 270" fill="none" stroke="#059669" stroke-width="3"/>
  <path d="M 250 310 C 270 310 270 330 290 330 C 310 330 310 310 330 310 C 350 310 350 330 370 330" fill="none" stroke="#059669" stroke-width="3"/>
  
  <!-- Crawler Space Label -->
  <text x="360" y="470" text-anchor="middle" font-family="'Outfit', sans-serif" font-size="20" font-weight="900" fill="#475569">
    CRAWL SPACE DRAFT BARRIER
  </text>
</svg>